<svg width="94" height="17" viewBox="0 0 94 17" fill="none" xmlns="http://www.w3.org/2000/svg">
<path d="M0.88 2.4L1.496 1.624V6.952L1.16 6.48H5.688V7.68H1.16L1.496 7.208V12.576L0.88 11.8H6.576V13H0.128V1.2H6.576V2.4H0.88ZM11.1849 8.48L11.1689 9.128L7.86488 4.504H9.35287L12.1129 8.32L11.2969 8.296L13.9609 4.504H15.4249L12.2249 8.92L12.3129 8.528L15.4889 13H13.9929L11.2489 9.24L12.1449 9.032L9.21688 13H7.75288L11.1849 8.48ZM17.2084 16.496V4.504H18.5684V16.496H17.2084ZM21.3604 13.16C20.7044 13.16 20.091 13 19.5204 12.68C18.9497 12.3547 18.4857 11.9093 18.1284 11.344C17.7764 10.7787 17.6004 10.1333 17.6004 9.408C17.6004 9.392 17.6004 9.37867 17.6004 9.368C17.6004 9.35733 17.6004 9.344 17.6004 9.328L18.5764 9.304C18.5764 9.31467 18.5764 9.328 18.5764 9.344C18.5764 9.35467 18.5764 9.36533 18.5764 9.376C18.5764 9.83467 18.6964 10.2533 18.9364 10.632C19.1817 11.0107 19.5017 11.312 19.8964 11.536C20.291 11.76 20.715 11.872 21.1684 11.872C21.9204 11.872 22.5444 11.616 23.0404 11.104C23.5417 10.5867 23.7924 9.8 23.7924 8.744C23.7924 7.68267 23.5444 6.89867 23.0484 6.392C22.5524 5.88 21.9257 5.624 21.1684 5.624C20.715 5.624 20.291 5.736 19.8964 5.96C19.5017 6.17867 19.1817 6.47467 18.9364 6.848C18.6964 7.22133 18.5764 7.64 18.5764 8.104L17.6004 8.072C17.6004 7.34133 17.7764 6.69867 18.1284 6.144C18.4857 5.58933 18.9497 5.15733 19.5204 4.848C20.091 4.53333 20.7044 4.376 21.3604 4.376C22.0484 4.376 22.683 4.54667 23.2644 4.888C23.8457 5.224 24.3124 5.71733 24.6644 6.368C25.0164 7.01867 25.1924 7.81067 25.1924 8.744C25.1924 9.69333 25.019 10.4987 24.6724 11.16C24.3257 11.816 23.8617 12.3147 23.2804 12.656C22.699 12.992 22.059 13.16 21.3604 13.16ZM28.7818 0.495999V13H27.4378V0.495999H28.7818ZM35.2949 13.152C34.4415 13.152 33.6869 12.9627 33.0309 12.584C32.3802 12.2 31.8682 11.6773 31.4949 11.016C31.1269 10.3493 30.9429 9.592 30.9429 8.744C30.9429 7.896 31.1269 7.144 31.4949 6.488C31.8682 5.832 32.3802 5.31733 33.0309 4.944C33.6869 4.57067 34.4415 4.384 35.2949 4.384C36.1482 4.384 36.9002 4.57067 37.5509 4.944C38.2069 5.31733 38.7189 5.832 39.0869 6.488C39.4602 7.144 39.6469 7.896 39.6469 8.744C39.6469 9.592 39.4602 10.3493 39.0869 11.016C38.7189 11.6773 38.2069 12.2 37.5509 12.584C36.9002 12.9627 36.1482 13.152 35.2949 13.152ZM35.2949 11.904C35.8815 11.904 36.3989 11.7733 36.8469 11.512C37.2949 11.2507 37.6442 10.8827 37.8949 10.408C38.1509 9.93333 38.2789 9.37867 38.2789 8.744C38.2789 8.10933 38.1509 7.56 37.8949 7.096C37.6442 6.62667 37.2949 6.26667 36.8469 6.016C36.3989 5.76 35.8815 5.632 35.2949 5.632C34.7135 5.632 34.1962 5.76 33.7429 6.016C33.2949 6.26667 32.9429 6.62667 32.6869 7.096C32.4362 7.56 32.3109 8.10933 32.3109 8.744C32.3109 9.37867 32.4362 9.93333 32.6869 10.408C32.9429 10.8827 33.2949 11.2507 33.7429 11.512C34.1962 11.7733 34.7135 11.904 35.2949 11.904ZM41.7709 13V4.504H43.1309V7.112L42.6829 6.952C42.7149 6.63733 42.7949 6.328 42.9229 6.024C43.0509 5.71467 43.2269 5.43733 43.4509 5.192C43.6802 4.94133 43.9655 4.744 44.3069 4.6C44.6482 4.45067 45.0482 4.376 45.5069 4.376C45.8482 4.376 46.1255 4.40533 46.3389 4.464C46.5575 4.51733 46.6935 4.56 46.7469 4.592L46.3949 5.928C46.3415 5.89067 46.2322 5.84267 46.0669 5.784C45.9069 5.72533 45.6775 5.696 45.3789 5.696C44.9362 5.696 44.5682 5.776 44.2749 5.936C43.9869 6.096 43.7575 6.30933 43.5869 6.576C43.4215 6.83733 43.3042 7.12267 43.2349 7.432C43.1655 7.74133 43.1309 8.048 43.1309 8.352V13H41.7709ZM48.4921 9.296V8.08H55.0601L54.8201 8.48C54.8201 8.448 54.8201 8.41867 54.8201 8.392C54.8201 8.36 54.8201 8.33067 54.8201 8.304C54.8201 7.81333 54.7161 7.36533 54.5081 6.96C54.3055 6.54933 54.0015 6.22133 53.5961 5.976C53.1908 5.73067 52.6895 5.608 52.0921 5.608C51.4895 5.608 50.9588 5.736 50.5001 5.992C50.0415 6.248 49.6841 6.61067 49.4281 7.08C49.1721 7.544 49.0441 8.09867 49.0441 8.744C49.0441 9.4 49.1668 9.96533 49.4121 10.44C49.6628 10.9147 50.0175 11.28 50.4761 11.536C50.9348 11.792 51.4788 11.92 52.1081 11.92C52.5561 11.92 52.9455 11.8747 53.2761 11.784C53.6068 11.688 53.8788 11.5627 54.0921 11.408C54.3108 11.248 54.4761 11.0747 54.5881 10.888C54.7001 10.7013 54.7668 10.5147 54.7881 10.328H56.1481C56.1215 10.6693 56.0148 11.008 55.8281 11.344C55.6415 11.68 55.3775 11.9867 55.0361 12.264C54.6948 12.536 54.2761 12.7547 53.7801 12.92C53.2841 13.0853 52.7135 13.168 52.0681 13.168C51.2148 13.168 50.4628 12.9813 49.8121 12.608C49.1615 12.2347 48.6495 11.7173 48.2761 11.056C47.9081 10.3947 47.7241 9.63467 47.7241 8.776C47.7241 7.90667 47.9108 7.144 48.2841 6.488C48.6575 5.82667 49.1721 5.30933 49.8281 4.936C50.4841 4.56267 51.2335 4.376 52.0761 4.376C52.9348 4.376 53.6788 4.56267 54.3081 4.936C54.9375 5.30933 55.4228 5.82133 55.7641 6.472C56.1055 7.11733 56.2761 7.85333 56.2761 8.68C56.2761 8.76533 56.2735 8.87733 56.2681 9.016C56.2628 9.15467 56.2548 9.248 56.2441 9.296H48.4921ZM63.6279 13H62.2999V1.2H64.5319L69.5399 12.216L69.4359 12.28V1.2H70.7639V13H68.4999L63.5079 2L63.6279 1.944V13ZM77.1386 13.152C76.2853 13.152 75.5306 12.9627 74.8746 12.584C74.224 12.2 73.712 11.6773 73.3386 11.016C72.9706 10.3493 72.7866 9.592 72.7866 8.744C72.7866 7.896 72.9706 7.144 73.3386 6.488C73.712 5.832 74.224 5.31733 74.8746 4.944C75.5306 4.57067 76.2853 4.384 77.1386 4.384C77.992 4.384 78.744 4.57067 79.3946 4.944C80.0506 5.31733 80.5626 5.832 80.9306 6.488C81.304 7.144 81.4906 7.896 81.4906 8.744C81.4906 9.592 81.304 10.3493 80.9306 11.016C80.5626 11.6773 80.0506 12.2 79.3946 12.584C78.744 12.9627 77.992 13.152 77.1386 13.152ZM77.1386 11.904C77.7253 11.904 78.2426 11.7733 78.6906 11.512C79.1386 11.2507 79.488 10.8827 79.7386 10.408C79.9946 9.93333 80.1226 9.37867 80.1226 8.744C80.1226 8.10933 79.9946 7.56 79.7386 7.096C79.488 6.62667 79.1386 6.26667 78.6906 6.016C78.2426 5.76 77.7253 5.632 77.1386 5.632C76.5573 5.632 76.04 5.76 75.5866 6.016C75.1386 6.26667 74.7866 6.62667 74.5306 7.096C74.28 7.56 74.1546 8.10933 74.1546 8.744C74.1546 9.37867 74.28 9.93333 74.5306 10.408C74.7866 10.8827 75.1386 11.2507 75.5866 11.512C76.04 11.7733 76.5573 11.904 77.1386 11.904ZM90.2203 13L87.8443 4.504H89.0523L91.3003 12.4H91.0523L92.5403 4.504H93.9563L92.1243 13H90.2203ZM84.4763 13L82.6283 4.504H84.0443L85.5483 12.4H85.3003L87.5243 4.504H88.7323L86.3883 13H84.4763Z" fill="#391400"/>
</svg>
