<svg width="153" height="14" viewBox="0 0 153 14" fill="none" xmlns="http://www.w3.org/2000/svg">
<path d="M2.14575 13L0.27375 1.2H1.68175L3.27375 12.416L3.06575 12.408L5.58575 1.2H7.39375L9.90575 12.408L9.69775 12.416L11.2898 1.2H12.7058L10.8178 13H8.71375L6.40975 2.352H6.56975L4.25775 13H2.14575ZM16.942 13.16C16.2967 13.16 15.7313 13.0587 15.246 12.856C14.766 12.6533 14.3927 12.3627 14.126 11.984C13.8593 11.6 13.726 11.1413 13.726 10.608C13.726 10.0533 13.87 9.592 14.158 9.224C14.446 8.85067 14.8513 8.56 15.374 8.352C15.8967 8.144 16.5047 8.00533 17.198 7.936C18.2433 7.82933 18.9873 7.72533 19.43 7.624C19.8727 7.51733 20.094 7.34667 20.094 7.112C20.094 7.10667 20.094 7.104 20.094 7.104C20.094 7.09867 20.094 7.09333 20.094 7.088C20.094 6.59733 19.894 6.232 19.494 5.992C19.094 5.74667 18.5153 5.624 17.758 5.624C16.9687 5.624 16.3553 5.76267 15.918 6.04C15.4807 6.312 15.262 6.75467 15.262 7.368H13.918C13.918 6.73333 14.0807 6.19467 14.406 5.752C14.7313 5.304 15.182 4.96267 15.758 4.728C16.3393 4.49333 17.0087 4.376 17.766 4.376C18.4593 4.376 19.0833 4.48267 19.638 4.696C20.198 4.904 20.6407 5.216 20.966 5.632C21.2967 6.04267 21.462 6.552 21.462 7.16C21.462 7.272 21.462 7.384 21.462 7.496C21.462 7.60267 21.462 7.712 21.462 7.824V11.4C21.462 11.5867 21.47 11.768 21.486 11.944C21.502 12.12 21.5287 12.2747 21.566 12.408C21.614 12.568 21.6673 12.6987 21.726 12.8C21.7847 12.896 21.8327 12.9627 21.87 13H20.502C20.4753 12.9733 20.4353 12.912 20.382 12.816C20.3287 12.7147 20.278 12.5973 20.23 12.464C20.1927 12.3573 20.1633 12.224 20.142 12.064C20.1207 11.8987 20.11 11.728 20.11 11.552L20.334 11.704C20.1687 11.992 19.926 12.2453 19.606 12.464C19.2913 12.6827 18.91 12.8533 18.462 12.976C18.014 13.0987 17.5073 13.16 16.942 13.16ZM17.158 11.936C17.7073 11.936 18.2033 11.8533 18.646 11.688C19.0887 11.5173 19.4407 11.2667 19.702 10.936C19.9633 10.6053 20.094 10.1947 20.094 9.704V8.016L20.398 8.528C20.0567 8.66133 19.63 8.77067 19.118 8.856C18.6113 8.936 18.0807 9.00267 17.526 9.056C16.7207 9.13067 16.1127 9.272 15.702 9.48C15.2967 9.688 15.094 10.0373 15.094 10.528C15.094 10.992 15.262 11.344 15.598 11.584C15.934 11.8187 16.454 11.936 17.158 11.936ZM29.804 13V8.928C29.804 8.68267 29.804 8.48267 29.804 8.328C29.804 8.168 29.804 8.016 29.804 7.872C29.804 7.42933 29.7293 7.04267 29.58 6.712C29.4307 6.38133 29.196 6.12533 28.876 5.944C28.556 5.76267 28.1373 5.672 27.62 5.672C27.1667 5.672 26.7453 5.78933 26.356 6.024C25.972 6.25333 25.6627 6.56533 25.428 6.96C25.1987 7.34933 25.084 7.78667 25.084 8.272L24.308 7.976C24.308 7.30933 24.4707 6.704 24.796 6.16C25.1267 5.616 25.564 5.184 26.108 4.864C26.6573 4.53867 27.2547 4.376 27.9 4.376C28.556 4.376 29.1293 4.50133 29.62 4.752C30.1107 5.00267 30.4893 5.36267 30.756 5.832C31.028 6.296 31.164 6.856 31.164 7.512C31.164 7.74667 31.164 8.00267 31.164 8.28C31.164 8.55733 31.164 8.816 31.164 9.056V13H29.804ZM23.724 13V4.504H25.084V13H23.724ZM36.6621 13.128C36.4008 13.128 36.1448 13.0987 35.8941 13.04C35.6435 12.9813 35.4168 12.8773 35.2141 12.728C35.0168 12.5733 34.8595 12.3573 34.7421 12.08C34.6248 11.7973 34.5661 11.4347 34.5661 10.992C34.5661 10.88 34.5661 10.7653 34.5661 10.648C34.5661 10.5253 34.5661 10.3973 34.5661 10.264V5.704H32.4941V4.504H33.8221C34.0035 4.504 34.1448 4.49867 34.2461 4.488C34.3475 4.472 34.4195 4.43733 34.4621 4.384C34.5101 4.32533 34.5395 4.23733 34.5501 4.12C34.5608 3.99733 34.5661 3.82933 34.5661 3.616V1.688H35.9341V4.504H38.5901V5.704H35.9341V9.824C35.9341 9.94133 35.9341 10.056 35.9341 10.168C35.9341 10.28 35.9341 10.384 35.9341 10.48C35.9341 10.9333 35.9875 11.288 36.0941 11.544C36.2061 11.8 36.4541 11.928 36.8381 11.928C36.9928 11.928 37.1395 11.9147 37.2781 11.888C37.4168 11.8613 37.5208 11.8347 37.5901 11.808V12.992C37.4995 13.024 37.3715 13.0533 37.2061 13.08C37.0461 13.112 36.8648 13.128 36.6621 13.128ZM49.5574 13V9.248C49.5574 8.91733 49.5574 8.632 49.5574 8.392C49.5574 8.14667 49.5574 7.94133 49.5574 7.776C49.5574 7.568 49.5414 7.344 49.5094 7.104C49.4827 6.85867 49.416 6.62933 49.3094 6.416C49.2027 6.19733 49.0347 6.01867 48.8054 5.88C48.5814 5.74133 48.2694 5.672 47.8694 5.672C47.464 5.672 47.1227 5.752 46.8454 5.912C46.568 6.06667 46.344 6.272 46.1734 6.528C46.0027 6.784 45.88 7.06667 45.8054 7.376C45.7307 7.68 45.6934 7.98133 45.6934 8.28L44.9254 7.968C44.9254 7.328 45.0587 6.736 45.3254 6.192C45.592 5.648 45.9654 5.21067 46.4454 4.88C46.9307 4.544 47.4987 4.376 48.1494 4.376C48.7947 4.376 49.32 4.50667 49.7254 4.768C50.1307 5.02933 50.4294 5.38933 50.6214 5.848C50.8134 6.30667 50.9094 6.83467 50.9094 7.432C50.9094 7.64533 50.9094 7.92 50.9094 8.256C50.9094 8.58667 50.9094 8.96533 50.9094 9.392V13H49.5574ZM44.3334 13V4.504H45.6934V13H44.3334ZM54.7654 13V9.248C54.7654 8.88533 54.7654 8.58667 54.7654 8.352C54.7654 8.112 54.7654 7.90933 54.7654 7.744C54.7654 7.536 54.752 7.312 54.7254 7.072C54.6987 6.832 54.632 6.608 54.5254 6.4C54.4187 6.18667 54.248 6.01333 54.0134 5.88C53.784 5.74133 53.4614 5.672 53.0454 5.672C52.6347 5.672 52.2907 5.74933 52.0134 5.904C51.7414 6.05867 51.5227 6.26133 51.3574 6.512C51.1974 6.76267 51.0827 7.03467 51.0134 7.328C50.944 7.616 50.9094 7.89333 50.9094 8.16L50.1414 7.864C50.1414 7.256 50.2694 6.688 50.5254 6.16C50.7867 5.62667 51.1547 5.19733 51.6294 4.872C52.1094 4.54133 52.6774 4.376 53.3334 4.376C53.9467 4.376 54.4587 4.496 54.8694 4.736C55.2854 4.976 55.5974 5.31467 55.8054 5.752C56.0187 6.184 56.1254 6.69867 56.1254 7.296C56.1254 7.52 56.1254 7.79733 56.1254 8.128C56.1254 8.45867 56.1254 8.832 56.1254 9.248V13H54.7654ZM62.5136 13.152C61.6603 13.152 60.9056 12.9627 60.2496 12.584C59.599 12.2 59.087 11.6773 58.7136 11.016C58.3456 10.3493 58.1616 9.592 58.1616 8.744C58.1616 7.896 58.3456 7.144 58.7136 6.488C59.087 5.832 59.599 5.31733 60.2496 4.944C60.9056 4.57067 61.6603 4.384 62.5136 4.384C63.367 4.384 64.119 4.57067 64.7696 4.944C65.4256 5.31733 65.9376 5.832 66.3056 6.488C66.679 7.144 66.8656 7.896 66.8656 8.744C66.8656 9.592 66.679 10.3493 66.3056 11.016C65.9376 11.6773 65.4256 12.2 64.7696 12.584C64.119 12.9627 63.367 13.152 62.5136 13.152ZM62.5136 11.904C63.1003 11.904 63.6176 11.7733 64.0656 11.512C64.5136 11.2507 64.863 10.8827 65.1136 10.408C65.3696 9.93333 65.4976 9.37867 65.4976 8.744C65.4976 8.10933 65.3696 7.56 65.1136 7.096C64.863 6.62667 64.5136 6.26667 64.0656 6.016C63.6176 5.76 63.1003 5.632 62.5136 5.632C61.9323 5.632 61.415 5.76 60.9616 6.016C60.5136 6.26667 60.1616 6.62667 59.9056 7.096C59.655 7.56 59.5296 8.10933 59.5296 8.744C59.5296 9.37867 59.655 9.93333 59.9056 10.408C60.1616 10.8827 60.5136 11.2507 60.9616 11.512C61.415 11.7733 61.9323 11.904 62.5136 11.904ZM68.9896 13V4.504H70.3496V7.112L69.9016 6.952C69.9336 6.63733 70.0136 6.328 70.1416 6.024C70.2696 5.71467 70.4456 5.43733 70.6696 5.192C70.899 4.94133 71.1843 4.744 71.5256 4.6C71.867 4.45067 72.267 4.376 72.7256 4.376C73.067 4.376 73.3443 4.40533 73.5576 4.464C73.7763 4.51733 73.9123 4.56 73.9656 4.592L73.6136 5.928C73.5603 5.89067 73.451 5.84267 73.2856 5.784C73.1256 5.72533 72.8963 5.696 72.5976 5.696C72.155 5.696 71.787 5.776 71.4936 5.936C71.2056 6.096 70.9763 6.30933 70.8056 6.576C70.6403 6.83733 70.523 7.12267 70.4536 7.432C70.3843 7.74133 70.3496 8.048 70.3496 8.352V13H68.9896ZM75.7109 9.296V8.08H82.2789L82.0389 8.48C82.0389 8.448 82.0389 8.41867 82.0389 8.392C82.0389 8.36 82.0389 8.33067 82.0389 8.304C82.0389 7.81333 81.9349 7.36533 81.7269 6.96C81.5242 6.54933 81.2202 6.22133 80.8149 5.976C80.4095 5.73067 79.9082 5.608 79.3109 5.608C78.7082 5.608 78.1775 5.736 77.7189 5.992C77.2602 6.248 76.9029 6.61067 76.6469 7.08C76.3909 7.544 76.2629 8.09867 76.2629 8.744C76.2629 9.4 76.3855 9.96533 76.6309 10.44C76.8815 10.9147 77.2362 11.28 77.6949 11.536C78.1535 11.792 78.6975 11.92 79.3269 11.92C79.7749 11.92 80.1642 11.8747 80.4949 11.784C80.8255 11.688 81.0975 11.5627 81.3109 11.408C81.5295 11.248 81.6949 11.0747 81.8069 10.888C81.9189 10.7013 81.9855 10.5147 82.0069 10.328H83.3669C83.3402 10.6693 83.2335 11.008 83.0469 11.344C82.8602 11.68 82.5962 11.9867 82.2549 12.264C81.9135 12.536 81.4949 12.7547 80.9989 12.92C80.5029 13.0853 79.9322 13.168 79.2869 13.168C78.4335 13.168 77.6815 12.9813 77.0309 12.608C76.3802 12.2347 75.8682 11.7173 75.4949 11.056C75.1269 10.3947 74.9429 9.63467 74.9429 8.776C74.9429 7.90667 75.1295 7.144 75.5029 6.488C75.8762 5.82667 76.3909 5.30933 77.0469 4.936C77.7029 4.56267 78.4522 4.376 79.2949 4.376C80.1535 4.376 80.8975 4.56267 81.5269 4.936C82.1562 5.30933 82.6415 5.82133 82.9829 6.472C83.3242 7.11733 83.4949 7.85333 83.4949 8.68C83.4949 8.76533 83.4922 8.87733 83.4869 9.016C83.4815 9.15467 83.4735 9.248 83.4629 9.296H75.7109ZM92.5826 13.16C91.9373 13.16 91.372 13.0587 90.8866 12.856C90.4066 12.6533 90.0333 12.3627 89.7666 11.984C89.5 11.6 89.3666 11.1413 89.3666 10.608C89.3666 10.0533 89.5106 9.592 89.7986 9.224C90.0866 8.85067 90.492 8.56 91.0146 8.352C91.5373 8.144 92.1453 8.00533 92.8386 7.936C93.884 7.82933 94.628 7.72533 95.0706 7.624C95.5133 7.51733 95.7346 7.34667 95.7346 7.112C95.7346 7.10667 95.7346 7.104 95.7346 7.104C95.7346 7.09867 95.7346 7.09333 95.7346 7.088C95.7346 6.59733 95.5346 6.232 95.1346 5.992C94.7346 5.74667 94.156 5.624 93.3986 5.624C92.6093 5.624 91.996 5.76267 91.5586 6.04C91.1213 6.312 90.9026 6.75467 90.9026 7.368H89.5586C89.5586 6.73333 89.7213 6.19467 90.0466 5.752C90.372 5.304 90.8226 4.96267 91.3986 4.728C91.98 4.49333 92.6493 4.376 93.4066 4.376C94.1 4.376 94.724 4.48267 95.2786 4.696C95.8386 4.904 96.2813 5.216 96.6066 5.632C96.9373 6.04267 97.1026 6.552 97.1026 7.16C97.1026 7.272 97.1026 7.384 97.1026 7.496C97.1026 7.60267 97.1026 7.712 97.1026 7.824V11.4C97.1026 11.5867 97.1106 11.768 97.1266 11.944C97.1426 12.12 97.1693 12.2747 97.2066 12.408C97.2546 12.568 97.308 12.6987 97.3666 12.8C97.4253 12.896 97.4733 12.9627 97.5106 13H96.1426C96.116 12.9733 96.076 12.912 96.0226 12.816C95.9693 12.7147 95.9186 12.5973 95.8706 12.464C95.8333 12.3573 95.804 12.224 95.7826 12.064C95.7613 11.8987 95.7506 11.728 95.7506 11.552L95.9746 11.704C95.8093 11.992 95.5666 12.2453 95.2466 12.464C94.932 12.6827 94.5506 12.8533 94.1026 12.976C93.6546 13.0987 93.148 13.16 92.5826 13.16ZM92.7986 11.936C93.348 11.936 93.844 11.8533 94.2866 11.688C94.7293 11.5173 95.0813 11.2667 95.3426 10.936C95.604 10.6053 95.7346 10.1947 95.7346 9.704V8.016L96.0386 8.528C95.6973 8.66133 95.2706 8.77067 94.7586 8.856C94.252 8.936 93.7213 9.00267 93.1666 9.056C92.3613 9.13067 91.7533 9.272 91.3426 9.48C90.9373 9.688 90.7346 10.0373 90.7346 10.528C90.7346 10.992 90.9026 11.344 91.2386 11.584C91.5746 11.8187 92.0946 11.936 92.7986 11.936ZM106.048 13L103.672 4.504H104.88L107.128 12.4H106.88L108.368 4.504H109.784L107.952 13H106.048ZM100.304 13L98.4564 4.504H99.8724L101.376 12.4H101.128L103.352 4.504H104.56L102.216 13H100.304ZM114.301 13.16C113.656 13.16 113.091 13.0587 112.605 12.856C112.125 12.6533 111.752 12.3627 111.485 11.984C111.219 11.6 111.085 11.1413 111.085 10.608C111.085 10.0533 111.229 9.592 111.517 9.224C111.805 8.85067 112.211 8.56 112.733 8.352C113.256 8.144 113.864 8.00533 114.557 7.936C115.603 7.82933 116.347 7.72533 116.789 7.624C117.232 7.51733 117.453 7.34667 117.453 7.112C117.453 7.10667 117.453 7.104 117.453 7.104C117.453 7.09867 117.453 7.09333 117.453 7.088C117.453 6.59733 117.253 6.232 116.853 5.992C116.453 5.74667 115.875 5.624 115.117 5.624C114.328 5.624 113.715 5.76267 113.277 6.04C112.84 6.312 112.621 6.75467 112.621 7.368H111.277C111.277 6.73333 111.44 6.19467 111.765 5.752C112.091 5.304 112.541 4.96267 113.117 4.728C113.699 4.49333 114.368 4.376 115.125 4.376C115.819 4.376 116.443 4.48267 116.997 4.696C117.557 4.904 118 5.216 118.325 5.632C118.656 6.04267 118.821 6.552 118.821 7.16C118.821 7.272 118.821 7.384 118.821 7.496C118.821 7.60267 118.821 7.712 118.821 7.824V11.4C118.821 11.5867 118.829 11.768 118.845 11.944C118.861 12.12 118.888 12.2747 118.925 12.408C118.973 12.568 119.027 12.6987 119.085 12.8C119.144 12.896 119.192 12.9627 119.229 13H117.861C117.835 12.9733 117.795 12.912 117.741 12.816C117.688 12.7147 117.637 12.5973 117.589 12.464C117.552 12.3573 117.523 12.224 117.501 12.064C117.48 11.8987 117.469 11.728 117.469 11.552L117.693 11.704C117.528 11.992 117.285 12.2453 116.965 12.464C116.651 12.6827 116.269 12.8533 115.821 12.976C115.373 13.0987 114.867 13.16 114.301 13.16ZM114.517 11.936C115.067 11.936 115.563 11.8533 116.005 11.688C116.448 11.5173 116.8 11.2667 117.061 10.936C117.323 10.6053 117.453 10.1947 117.453 9.704V8.016L117.757 8.528C117.416 8.66133 116.989 8.77067 116.477 8.856C115.971 8.936 115.44 9.00267 114.885 9.056C114.08 9.13067 113.472 9.272 113.061 9.48C112.656 9.688 112.453 10.0373 112.453 10.528C112.453 10.992 112.621 11.344 112.957 11.584C113.293 11.8187 113.813 11.936 114.517 11.936ZM121.083 13V4.504H122.443V7.112L121.995 6.952C122.027 6.63733 122.107 6.328 122.235 6.024C122.363 5.71467 122.539 5.43733 122.763 5.192C122.993 4.94133 123.278 4.744 123.619 4.6C123.961 4.45067 124.361 4.376 124.819 4.376C125.161 4.376 125.438 4.40533 125.651 4.464C125.87 4.51733 126.006 4.56 126.059 4.592L125.707 5.928C125.654 5.89067 125.545 5.84267 125.379 5.784C125.219 5.72533 124.99 5.696 124.691 5.696C124.249 5.696 123.881 5.776 123.587 5.936C123.299 6.096 123.07 6.30933 122.899 6.576C122.734 6.83733 122.617 7.12267 122.547 7.432C122.478 7.74133 122.443 8.048 122.443 8.352V13H121.083ZM130.869 13.16C130.17 13.16 129.53 12.992 128.949 12.656C128.367 12.3147 127.903 11.816 127.557 11.16C127.21 10.4987 127.037 9.69333 127.037 8.744C127.037 7.81067 127.213 7.01867 127.565 6.368C127.917 5.71733 128.383 5.224 128.965 4.888C129.546 4.54667 130.181 4.376 130.869 4.376C131.525 4.376 132.138 4.53333 132.709 4.848C133.285 5.15733 133.749 5.58933 134.101 6.144C134.453 6.69867 134.629 7.34133 134.629 8.072C134.629 8.088 134.629 8.104 134.629 8.12C134.629 8.136 134.629 8.152 134.629 8.168L133.653 8.208C133.653 8.192 133.653 8.176 133.653 8.16C133.653 8.13867 133.653 8.12 133.653 8.104C133.653 7.64 133.53 7.22133 133.285 6.848C133.045 6.47467 132.727 6.17867 132.333 5.96C131.938 5.736 131.514 5.624 131.061 5.624C130.303 5.624 129.677 5.88 129.181 6.392C128.685 6.89867 128.437 7.68267 128.437 8.744C128.437 9.8 128.685 10.5867 129.181 11.104C129.682 11.616 130.309 11.872 131.061 11.872C131.535 11.872 131.967 11.7573 132.357 11.528C132.751 11.2987 133.066 10.992 133.301 10.608C133.535 10.2187 133.653 9.784 133.653 9.304L134.629 9.328C134.629 10.0533 134.461 10.7067 134.125 11.288C133.789 11.864 133.335 12.32 132.765 12.656C132.199 12.992 131.567 13.16 130.869 13.16ZM133.653 13V0.495999H135.021V13H133.653ZM140.66 13.16C140.148 13.16 139.673 13.1067 139.236 13C138.804 12.888 138.425 12.728 138.1 12.52C137.78 12.3067 137.529 12.0453 137.348 11.736C137.172 11.4267 137.084 11.072 137.084 10.672C137.084 10.6293 137.084 10.5867 137.084 10.544C137.084 10.496 137.084 10.456 137.084 10.424H138.452C138.452 10.456 138.452 10.4827 138.452 10.504C138.452 10.5253 138.452 10.5573 138.452 10.6C138.452 11.032 138.652 11.3627 139.052 11.592C139.452 11.816 139.998 11.928 140.692 11.928C141.118 11.928 141.5 11.8853 141.836 11.8C142.172 11.7147 142.436 11.584 142.628 11.408C142.825 11.232 142.924 11.0107 142.924 10.744C142.924 10.3013 142.716 9.98667 142.3 9.8C141.889 9.608 141.273 9.44267 140.452 9.304C140.02 9.22933 139.609 9.13333 139.22 9.016C138.83 8.89333 138.484 8.736 138.18 8.544C137.881 8.352 137.644 8.11467 137.468 7.832C137.297 7.544 137.212 7.2 137.212 6.8C137.212 6.28267 137.364 5.84533 137.668 5.488C137.977 5.12533 138.393 4.85067 138.916 4.664C139.438 4.472 140.02 4.376 140.66 4.376C141.278 4.376 141.849 4.47467 142.372 4.672C142.894 4.86933 143.313 5.15733 143.628 5.536C143.948 5.90933 144.108 6.37067 144.108 6.92C144.108 6.94133 144.108 6.968 144.108 7C144.108 7.02667 144.108 7.05333 144.108 7.08H142.748C142.748 7.05333 142.748 7.032 142.748 7.016C142.748 7 142.748 6.98133 142.748 6.96C142.748 6.65067 142.649 6.39733 142.452 6.2C142.254 5.99733 141.998 5.848 141.684 5.752C141.369 5.65067 141.033 5.6 140.676 5.6C140.34 5.6 140.009 5.63733 139.684 5.712C139.358 5.78133 139.089 5.89867 138.876 6.064C138.662 6.22933 138.556 6.456 138.556 6.744C138.556 7.032 138.654 7.264 138.852 7.44C139.054 7.61067 139.337 7.752 139.7 7.864C140.068 7.97067 140.5 8.06933 140.996 8.16C141.438 8.24 141.857 8.34133 142.252 8.464C142.646 8.58133 142.993 8.73333 143.292 8.92C143.596 9.10667 143.833 9.344 144.004 9.632C144.18 9.91467 144.267 10.2613 144.267 10.672C144.267 11.088 144.172 11.4507 143.98 11.76C143.793 12.0693 143.532 12.328 143.196 12.536C142.865 12.744 142.481 12.8987 142.044 13C141.612 13.1067 141.15 13.16 140.66 13.16ZM148.676 10.248C148.676 9.768 148.751 9.34133 148.9 8.968C149.05 8.59467 149.239 8.25333 149.468 7.944C149.698 7.63467 149.935 7.33867 150.18 7.056C150.404 6.8 150.615 6.54133 150.812 6.28C151.01 6.01333 151.17 5.728 151.292 5.424C151.415 5.12 151.476 4.77867 151.476 4.4C151.476 3.67467 151.298 3.13333 150.94 2.776C150.588 2.41333 150.063 2.232 149.364 2.232C148.65 2.232 148.106 2.43467 147.732 2.84C147.359 3.24533 147.172 3.85333 147.172 4.664H145.948C145.948 3.86933 146.095 3.21067 146.388 2.688C146.682 2.16 147.084 1.76533 147.596 1.504C148.108 1.24267 148.695 1.112 149.356 1.112C150.018 1.112 150.596 1.24 151.092 1.496C151.594 1.752 151.986 2.13067 152.268 2.632C152.551 3.128 152.692 3.74133 152.692 4.472C152.692 4.96267 152.615 5.39733 152.46 5.776C152.306 6.14933 152.108 6.48533 151.868 6.784C151.628 7.08267 151.38 7.368 151.124 7.64C150.772 8.01867 150.458 8.408 150.18 8.808C149.903 9.20267 149.764 9.68267 149.764 10.248H148.676ZM149.3 13.208C149.039 13.208 148.818 13.12 148.636 12.944C148.455 12.7627 148.364 12.5413 148.364 12.28C148.364 12.024 148.455 11.8053 148.636 11.624C148.818 11.4427 149.039 11.352 149.3 11.352C149.556 11.352 149.775 11.4427 149.956 11.624C150.138 11.8053 150.228 12.024 150.228 12.28C150.228 12.5413 150.138 12.7627 149.956 12.944C149.775 13.12 149.556 13.208 149.3 13.208Z" fill="#391400" fill-opacity="0.64"/>
</svg>
